<svg width="40" height="40" viewBox="0 0 40 40" fill="none" xmlns="http://www.w3.org/2000/svg">
<circle cx="20" cy="20" r="20" fill="white"/>
<path d="M12.342 11.4409H24.1731C25.1341 11.4409 25.9131 12.2315 25.9131 13.2067V26.9242C25.9131 27.8995 25.1341 28.69 24.1731 28.69H12.342C11.3811 28.69 10.6021 27.8995 10.6021 26.9242V13.2067C10.6021 12.2315 11.381 11.4409 12.342 11.4409Z" fill="#D7B8FF"/>
<path d="M12.5793 11.5745L20.9226 15.5143C21.4134 15.7461 21.7273 16.2457 21.7273 16.7951V31.01C21.7273 32.0321 20.6906 32.7159 19.7702 32.3009L11.4269 28.5389C10.9241 28.3123 10.6001 27.8063 10.6001 27.248V12.8552C10.6001 11.8224 11.6566 11.1387 12.5793 11.5745Z" fill="#9A42FF"/>
<path d="M28.4972 6.5332L28.6714 7.00404C29.0818 8.1132 29.9563 8.9877 31.0655 9.39814L31.5363 9.57237L31.0655 9.74657C29.9563 10.157 29.0818 11.0315 28.6714 12.1407L28.4972 12.6115L28.3229 12.1407C27.9125 11.0315 27.038 10.157 25.9288 9.74657L25.458 9.57237L25.9288 9.39814C27.038 8.9877 27.9125 8.1132 28.3229 7.00404L28.4972 6.5332Z" fill="#9A42FF"/>
</svg>
